<?xml version="1.0" encoding="UTF-8" standalone="no"?><!DOCTYPE svg PUBLIC "-//W3C//DTD SVG 1.1//EN" "http://www.w3.org/Graphics/SVG/1.1/DTD/svg11.dtd"><svg width="100%" height="100%" viewBox="0 0 227 83" version="1.1" xmlns="http://www.w3.org/2000/svg" xmlns:xlink="http://www.w3.org/1999/xlink" xml:space="preserve" xmlns:serif="http://www.serif.com/" style="fill-rule:evenodd;clip-rule:evenodd;stroke-linejoin:round;stroke-miterlimit:1.41421;"><rect id="ArtBoard2" x="0" y="0" width="226.32" height="82.725" style="fill:none;"/><g><path d="M40.08,75.106l-8.271,-14.906l-9.887,0c-8.236,0 -14.937,-6.973 -14.937,-15.544l0,-22.858c0,-8.572 6.701,-15.544 14.937,-15.544l36.316,0c8.236,0 14.937,6.972 14.937,15.544l0,22.858c0,8.571 -6.701,15.544 -14.937,15.544l-9.889,0l-8.269,14.906Zm-18.158,-65.194c-6.298,0 -11.422,5.332 -11.422,11.886l0,22.859c0,6.554 5.124,11.886 11.422,11.886l11.917,0l6.241,11.249l6.241,-11.25l11.917,0c6.298,0 11.422,-5.332 11.422,-11.886l0,-22.858c0,-6.554 -5.124,-11.887 -11.422,-11.887l-36.316,0.001Z" style="fill:#eaebeb;fill-rule:nonzero;"/><ellipse cx="55.153" cy="34.702" rx="3.695" ry="3.846" style="fill:#eaebeb;"/><ellipse cx="40.08" cy="34.702" rx="3.695" ry="3.846" style="fill:#eaebeb;"/><ellipse cx="25.007" cy="34.702" rx="3.695" ry="3.846" style="fill:#eaebeb;"/></g><path d="M86.546,58.592l0,-35.824l4.74,0l0,14.711l18.62,0l0,-14.711l4.741,0l0,35.824l-4.741,0l0,-16.886l-18.62,0l0,16.886l-4.74,0Z" style="fill:#eaebeb;fill-rule:nonzero;"/><path d="M120.927,47.082l4.472,-0.391c0.211,1.792 0.704,3.262 1.478,4.411c0.774,1.148 1.975,2.077 3.604,2.786c1.629,0.708 3.462,1.063 5.498,1.063c1.809,0 3.405,-0.269 4.79,-0.807c1.385,-0.537 2.415,-1.275 3.091,-2.211c0.676,-0.937 1.014,-1.959 1.014,-3.067c0,-1.124 -0.326,-2.106 -0.977,-2.944c-0.652,-0.839 -1.727,-1.544 -3.226,-2.114c-0.961,-0.375 -3.087,-0.957 -6.378,-1.747c-3.29,-0.79 -5.595,-1.536 -6.915,-2.236c-1.71,-0.896 -2.985,-2.008 -3.824,-3.336c-0.839,-1.327 -1.259,-2.814 -1.259,-4.459c0,-1.809 0.514,-3.499 1.54,-5.071c1.026,-1.572 2.525,-2.765 4.496,-3.58c1.971,-0.814 4.162,-1.221 6.573,-1.221c2.656,0 4.997,0.427 7.026,1.282c2.028,0.856 3.588,2.114 4.679,3.776c1.092,1.661 1.678,3.543 1.759,5.645l-4.545,0.342c-0.244,-2.265 -1.071,-3.975 -2.48,-5.132c-1.409,-1.157 -3.49,-1.735 -6.243,-1.735c-2.867,0 -4.957,0.525 -6.268,1.576c-1.311,1.051 -1.967,2.318 -1.967,3.8c0,1.287 0.464,2.346 1.393,3.177c0.912,0.831 3.294,1.682 7.147,2.553c3.853,0.872 6.496,1.633 7.93,2.285c2.085,0.961 3.624,2.179 4.618,3.653c0.994,1.474 1.491,3.173 1.491,5.095c0,1.906 -0.546,3.702 -1.638,5.388c-1.091,1.686 -2.659,2.998 -4.703,3.934c-2.045,0.937 -4.346,1.405 -6.904,1.405c-3.241,0 -5.958,-0.472 -8.149,-1.417c-2.191,-0.945 -3.91,-2.366 -5.156,-4.264c-1.246,-1.898 -1.902,-4.044 -1.967,-6.439Z" style="fill:#eaebeb;fill-rule:nonzero;"/><path d="M181.479,46.031l4.741,1.198c-0.994,3.893 -2.782,6.862 -5.364,8.907c-2.582,2.044 -5.738,3.066 -9.469,3.066c-3.861,0 -7.001,-0.786 -9.42,-2.358c-2.419,-1.572 -4.26,-3.848 -5.522,-6.829c-1.263,-2.982 -1.894,-6.183 -1.894,-9.604c0,-3.73 0.712,-6.984 2.138,-9.762c1.425,-2.777 3.454,-4.887 6.084,-6.329c2.631,-1.442 5.527,-2.162 8.687,-2.162c3.584,0 6.598,0.912 9.042,2.736c2.443,1.825 4.146,4.391 5.107,7.698l-4.667,1.099c-0.831,-2.606 -2.037,-4.504 -3.617,-5.693c-1.58,-1.189 -3.568,-1.784 -5.962,-1.784c-2.753,0 -5.054,0.66 -6.903,1.979c-1.849,1.32 -3.149,3.091 -3.898,5.315c-0.749,2.224 -1.124,4.517 -1.124,6.879c0,3.046 0.444,5.706 1.332,7.978c0.888,2.273 2.268,3.971 4.142,5.095c1.873,1.124 3.901,1.686 6.084,1.686c2.656,0 4.904,-0.766 6.744,-2.297c1.841,-1.531 3.088,-3.804 3.739,-6.818Z" style="fill:#eaebeb;fill-rule:nonzero;"/><path d="M189.861,45.616c0,-4.806 1.335,-8.365 4.007,-10.678c2.232,-1.923 4.952,-2.884 8.162,-2.884c3.567,0 6.483,1.169 8.748,3.507c2.264,2.337 3.396,5.567 3.396,9.689c0,3.339 -0.501,5.966 -1.502,7.88c-1.002,1.914 -2.46,3.401 -4.374,4.46c-1.915,1.059 -4.004,1.588 -6.268,1.588c-3.633,0 -6.569,-1.165 -8.809,-3.494c-2.24,-2.33 -3.36,-5.686 -3.36,-10.068Zm4.52,0c0,3.323 0.725,5.812 2.175,7.465c1.45,1.654 3.275,2.48 5.474,2.48c2.183,0 3.999,-0.83 5.449,-2.492c1.45,-1.662 2.175,-4.195 2.175,-7.6c0,-3.209 -0.729,-5.64 -2.187,-7.294c-1.458,-1.653 -3.271,-2.48 -5.437,-2.48c-2.199,0 -4.024,0.823 -5.474,2.468c-1.45,1.645 -2.175,4.13 -2.175,7.453Z" style="fill:#eaebeb;fill-rule:nonzero;"/></svg>